<svg id="Layer_1" data-name="Layer 1" xmlns="http://www.w3.org/2000/svg" viewBox="0 0 60.73 53.54"><defs><style>.cls-1{fill:#d03;}.cls-2{fill:#004461;}</style></defs><path class="cls-1" d="M33.67,38a3.93,3.93,0,0,1-3.82,3.45A3.05,3.05,0,0,1,26.76,38a3.93,3.93,0,0,1,3.82-3.46A3,3,0,0,1,33.67,38Z"/><path class="cls-1" d="M41.49,29.35h1.73L43,31.08l5.55-3.46-4.82-3.46-.18,1.73h-1.7c-4.81,0-7.18,1.59-6.27,5.6.47,2.07,1,3.26,1.88,6.51,1.21,4.3-2.44,8.64-8.19,8.64-7.12,0-10-7.32-3.93-21.42a86.52,86.52,0,0,1,4.87-9.52A4.83,4.83,0,0,0,29,15.52a5.85,5.85,0,0,0-4.76,2.6c-.13.19-.24.39-.36.59-4.52,7.59-6.51,13.71-7.27,17.55-1.88,9.35,1.74,17.24,12,17.28,9,0,18.18-8.68,13.92-17.28C40.44,32.12,39.05,29.35,41.49,29.35Z"/><path class="cls-2" d="M58.18,18.37a14.51,14.51,0,0,0-6-5,20.52,20.52,0,0,0-39.38,3.28l-.55,0a12.22,12.22,0,0,0-1.9,24.29l.19,0a1.19,1.19,0,0,0,.18-2.36A9.84,9.84,0,0,1,12.22,19a10.78,10.78,0,0,1,1.38.09,1.17,1.17,0,0,0,1.33-1,18.15,18.15,0,0,1,35.15-3.44,1.14,1.14,0,0,0,.68.71A12.1,12.1,0,0,1,48.7,38.42a1.18,1.18,0,1,0,.48,2.32A14.51,14.51,0,0,0,60.73,26.57,14.36,14.36,0,0,0,58.18,18.37Z"/></svg>